<svg width="12" height="9" viewBox="0 0 12 9" fill="none" xmlns="http://www.w3.org/2000/svg">
<path d="M2.41406 7.39941C2.91211 7.39941 3.28971 7.15202 3.54687 6.65723C3.80404 6.15918 3.93262 5.43327 3.93262 4.47949C3.93262 3.52246 3.80404 2.79655 3.54687 2.30176C3.28971 1.80697 2.91211 1.55957 2.41406 1.55957C1.91602 1.55957 1.53678 1.80697 1.27637 2.30176C1.01921 2.79655 0.890625 3.52246 0.890625 4.47949C0.890625 5.43327 1.01921 6.15918 1.27637 6.65723C1.53678 7.15202 1.91602 7.39941 2.41406 7.39941ZM0.646484 6.4375V5.48535L4.20605 2.5166V3.43457L0.646484 6.4375ZM2.41406 8.16113C1.64909 8.16113 1.06152 7.84375 0.651367 7.20898C0.241211 6.57422 0.0361328 5.66439 0.0361328 4.47949C0.0361328 3.29134 0.241211 2.38151 0.651367 1.75C1.06152 1.11523 1.64909 0.797851 2.41406 0.797851C3.17904 0.797851 3.7666 1.11523 4.17676 1.75C4.58691 2.38151 4.79199 3.29134 4.79199 4.47949C4.79199 5.66439 4.58691 6.57422 4.17676 7.20898C3.7666 7.84375 3.17904 8.16113 2.41406 8.16113ZM8.41992 8V1.93066H8.3418L6.32519 3.23437V2.31641L8.4248 0.954101H9.26953V8H8.41992ZM11.252 8H6.33984V7.24316H11.252V8Z" fill="#1E293B"/>
</svg>

