<svg width="810" height="540" viewBox="0 0 810 540" fill="none" xmlns="http://www.w3.org/2000/svg">
<g clip-path="url(#clip0_707_21)">
<path fill-rule="evenodd" clip-rule="evenodd" d="M538.021 302.858C539.327 292.088 540 281.123 540 270C540 120.883 419.117 0 270 0C120.883 0 0 120.883 0 270C0 419.117 120.883 540 270 540C406.849 540 519.919 438.188 537.597 306.178C535.604 307.615 533.369 308.775 530.892 309.66C527.832 310.68 524.375 311.19 520.522 311.19C516.328 311.19 512.985 310.623 510.492 309.49C507.998 308.243 506.185 306.6 505.052 304.56C504.032 302.52 503.522 300.14 503.522 297.42C500.802 301.727 497.515 305.127 493.662 307.62C489.808 310 485.105 311.19 479.552 311.19C474.452 311.19 470.202 310.227 466.802 308.3C463.402 306.373 460.908 303.823 459.322 300.65C457.735 297.363 456.942 293.793 456.942 289.94C456.942 285.067 458.018 281.1 460.172 278.04C462.438 274.98 465.328 272.487 468.842 270.56C472.355 268.633 476.038 267.047 479.892 265.8C483.858 264.553 487.598 263.363 491.112 262.23C494.738 260.983 497.628 259.567 499.782 257.98C502.048 256.28 503.182 254.127 503.182 251.52V238.26C503.182 235.313 502.672 232.707 501.652 230.44C500.745 228.06 499.272 226.247 497.232 225C495.305 223.753 492.755 223.13 489.582 223.13C487.315 223.13 485.048 223.47 482.782 224.15C480.515 224.717 478.645 225.737 477.172 227.21C480.345 228.343 482.782 230.1 484.482 232.48C486.295 234.747 487.202 237.353 487.202 240.3C487.202 244.153 485.842 247.213 483.122 249.48C480.515 251.747 477.398 252.88 473.772 252.88C469.692 252.88 466.575 251.633 464.422 249.14C462.382 246.533 461.362 243.417 461.362 239.79C461.362 236.503 462.155 233.783 463.742 231.63C465.442 229.477 467.765 227.437 470.712 225.51C473.885 223.697 477.682 222.28 482.102 221.26C486.635 220.24 491.508 219.73 496.722 219.73C501.935 219.73 506.638 220.297 510.832 221.43C515.025 222.45 518.538 224.377 521.372 227.21C523.978 229.817 525.678 233.047 526.472 236.9C527.265 240.64 527.662 245.4 527.662 251.18V297.42C527.662 300.253 527.945 302.237 528.512 303.37C529.078 304.39 530.042 304.9 531.402 304.9C532.422 304.9 533.385 304.617 534.292 304.05C535.312 303.483 536.388 302.803 537.522 302.01L538.021 302.858ZM62.3531 221.6C58.8398 220.353 54.7031 219.73 49.9431 219.73C44.8431 219.73 40.0265 220.637 35.4931 222.45C31.0731 224.15 27.5031 226.757 24.7831 230.27C22.0631 233.783 20.7031 238.09 20.7031 243.19C20.7031 247.61 21.7231 251.577 23.7631 255.09C25.8031 258.49 28.4098 261.663 31.5831 264.61C34.8698 267.443 38.3265 270.333 41.9531 273.28C46.9398 277.133 51.0198 280.703 54.1931 283.99C57.4798 287.277 59.1231 291.413 59.1231 296.4C59.1231 299.233 58.4998 301.557 57.2531 303.37C56.1198 305.183 54.6465 306.487 52.8331 307.28C51.0198 308.073 49.1498 308.47 47.2231 308.47C42.4631 308.47 38.4965 307.167 35.3231 304.56C32.2631 301.84 29.8265 298.157 28.0131 293.51C26.1998 288.75 24.9531 283.31 24.2731 277.19H20.7031C20.7031 285.803 20.6465 292.717 20.5331 297.93C20.4198 303.143 20.2498 307.563 20.0231 311.19H23.5931C24.0465 309.15 24.6698 307.563 25.4631 306.43C26.3698 305.297 27.3898 304.9 28.5231 305.24C29.6565 305.693 30.8465 306.26 32.0931 306.94C33.4531 307.507 34.8698 308.13 36.3431 308.81C38.2698 309.83 40.5365 310.68 43.1431 311.36C45.8631 312.04 48.9231 312.38 52.3231 312.38C58.2165 312.38 63.5431 311.36 68.3031 309.32C73.1765 307.28 77.0865 304.39 80.0331 300.65C82.9798 296.797 84.4531 292.32 84.4531 287.22C84.4531 282.687 83.5465 278.777 81.7331 275.49C79.9198 272.203 77.4831 269.2 74.4231 266.48C71.3631 263.647 67.9631 260.813 64.2231 257.98C60.7098 255.373 57.3098 252.937 54.0231 250.67C50.8498 248.29 48.2431 245.853 46.2031 243.36C44.1631 240.753 43.1431 237.75 43.1431 234.35C43.1431 230.837 44.2765 228.173 46.5431 226.36C48.8098 224.433 51.5865 223.47 54.8731 223.47C59.6331 223.47 63.4865 224.773 66.4331 227.38C69.4931 229.987 71.8165 233.33 73.4031 237.41C74.9898 241.49 76.0665 245.627 76.6331 249.82H80.2031C80.2031 242.227 80.2598 236.163 80.3731 231.63C80.4865 226.983 80.6565 223.073 80.8831 219.9H77.3131C76.4065 225.907 74.0265 227.607 70.1731 225C68.5865 223.867 65.9798 222.733 62.3531 221.6ZM122.519 235.54V177.06C119.005 177.853 115.152 178.477 110.959 178.93C106.765 179.27 102.345 179.44 97.6985 179.44C94.2985 179.44 90.7852 179.27 87.1585 178.93V182.5C91.3518 182.5 94.1852 183.747 95.6585 186.24C97.2452 188.62 98.0385 192.36 98.0385 197.46V294.19C98.0385 298.95 97.1885 302.18 95.4885 303.88C93.9018 305.58 91.1252 306.43 87.1585 306.43V310C89.4252 309.887 92.7685 309.773 97.1885 309.66C101.722 309.433 106.199 309.32 110.619 309.32C114.699 309.32 118.722 309.433 122.689 309.66C126.655 309.773 129.659 309.887 131.699 310V306.43C128.299 306.43 125.919 305.58 124.559 303.88C123.199 302.18 122.519 298.95 122.519 294.19V246.76C122.519 242.907 123.255 239.507 124.729 236.56C126.315 233.613 128.355 231.347 130.849 229.76C133.455 228.06 136.289 227.21 139.349 227.21C142.182 227.21 144.335 227.833 145.809 229.08C147.395 230.213 148.472 231.857 149.039 234.01C149.605 236.05 149.889 238.487 149.889 241.32V294.19C149.889 298.95 149.209 302.18 147.849 303.88C146.489 305.58 144.109 306.43 140.709 306.43V310C142.749 309.887 145.809 309.773 149.889 309.66C154.082 309.433 158.389 309.32 162.809 309.32C166.889 309.32 171.082 309.433 175.389 309.66C179.809 309.773 183.095 309.887 185.249 310V306.43C181.282 306.43 178.449 305.58 176.749 303.88C175.162 302.18 174.369 298.95 174.369 294.19V248.46C174.369 242.68 173.915 238.09 173.009 234.69C172.215 231.29 170.855 228.513 168.929 226.36C167.229 224.32 164.905 222.733 161.959 221.6C159.012 220.353 155.102 219.73 150.229 219.73C144.222 219.73 138.782 220.92 133.909 223.3C129.149 225.567 125.352 229.647 122.519 235.54ZM269.296 291.47V220.24C265.783 221.033 261.93 221.657 257.736 222.11C253.656 222.45 249.236 222.62 244.476 222.62C241.076 222.62 237.563 222.45 233.936 222.11V225.68C238.13 225.68 240.963 226.927 242.436 229.42C244.023 231.8 244.816 235.54 244.816 240.64V285.18C244.816 288.92 244.023 292.32 242.436 295.38C240.963 298.327 238.98 300.65 236.486 302.35C234.106 304.05 231.386 304.9 228.326 304.9C225.493 304.9 223.34 304.333 221.866 303.2C220.393 301.953 219.373 300.253 218.806 298.1C218.353 295.947 218.126 293.453 218.126 290.62V220.24C214.613 221.033 210.76 221.657 206.566 222.11C202.486 222.45 198.066 222.62 193.306 222.62C189.906 222.62 186.393 222.45 182.766 222.11V225.68C186.96 225.68 189.793 226.927 191.266 229.42C192.853 231.8 193.646 235.54 193.646 240.64V283.65C193.646 289.203 194.043 293.737 194.836 297.25C195.63 300.763 196.99 303.597 198.916 305.75C200.616 307.677 202.94 309.263 205.886 310.51C208.833 311.757 212.686 312.38 217.446 312.38C223.34 312.38 228.666 311.19 233.426 308.81C238.3 306.317 242.096 302.237 244.816 296.57V311.87C248.443 310.963 252.296 310.34 256.376 310C260.456 309.66 264.876 309.49 269.636 309.49C273.15 309.49 276.663 309.66 280.176 310V306.43C276.096 306.43 273.263 305.24 271.676 302.86C270.09 300.367 269.296 296.57 269.296 291.47ZM355.732 221.6C352.785 220.353 348.932 219.73 344.172 219.73C338.165 219.73 332.725 220.92 327.852 223.3C322.979 225.68 319.125 229.76 316.292 235.54V220.24C312.779 221.033 308.925 221.657 304.732 222.11C300.652 222.45 296.232 222.62 291.472 222.62C288.072 222.62 284.559 222.45 280.932 222.11V225.68C285.125 225.68 287.959 226.927 289.432 229.42C291.019 231.8 291.812 235.54 291.812 240.64V294.19C291.812 298.95 290.962 302.18 289.262 303.88C287.675 305.58 284.899 306.43 280.932 306.43V310C283.199 309.887 286.599 309.773 291.132 309.66C295.665 309.433 300.085 309.32 304.392 309.32C308.585 309.32 312.609 309.433 316.462 309.66C320.429 309.773 323.432 309.887 325.472 310V306.43C322.185 306.43 319.805 305.58 318.332 303.88C316.972 302.18 316.292 298.95 316.292 294.19V246.93C316.292 243.19 317.029 239.847 318.502 236.9C320.089 233.84 322.129 231.46 324.622 229.76C327.229 228.06 330.062 227.21 333.122 227.21C336.069 227.21 338.279 227.833 339.752 229.08C341.225 230.213 342.245 231.857 342.812 234.01C343.379 236.05 343.662 238.487 343.662 241.32V294.19C343.662 298.95 342.982 302.18 341.622 303.88C340.262 305.58 337.882 306.43 334.482 306.43V310C336.635 309.887 339.752 309.773 343.832 309.66C348.025 309.433 352.275 309.32 356.582 309.32C360.775 309.32 365.025 309.433 369.332 309.66C373.639 309.773 376.869 309.887 379.022 310V306.43C375.055 306.43 372.222 305.58 370.522 303.88C368.935 302.18 368.142 298.95 368.142 294.19V248.46C368.142 242.68 367.689 238.09 366.782 234.69C365.989 231.29 364.685 228.513 362.872 226.36C361.172 224.32 358.792 222.733 355.732 221.6ZM459.86 225.51V222.11C458.386 222.223 456.403 222.337 453.91 222.45C451.416 222.563 449.036 222.62 446.77 222.62H441.67C439.743 222.507 437.816 222.45 435.89 222.45C433.963 222.337 432.093 222.223 430.28 222.11V225.51C434.02 225.737 436.966 226.87 439.12 228.91C441.273 230.837 442.52 233.783 442.86 237.75C443.2 241.603 442.293 246.59 440.14 252.71L428.464 285.37L407.67 235.2C406.31 232.027 405.97 229.817 406.65 228.57C407.443 227.21 408.803 226.417 410.73 226.19C412.77 225.85 414.923 225.68 417.19 225.68V222.11C413.79 222.337 410.163 222.563 406.31 222.79C402.456 223.017 398.206 223.13 393.56 223.13C389.82 223.13 385.91 223.073 381.83 222.96C377.863 222.733 374.01 222.45 370.27 222.11V225.68C371.63 225.68 373.216 226.19 375.03 227.21C376.956 228.117 378.883 230.78 380.81 235.2L416.9 317.148L414.13 325.3C412.43 329.947 410.276 333.347 407.67 335.5C405.063 337.653 402.06 338.73 398.66 338.73H396.79C395.996 338.73 395.316 338.673 394.75 338.56C397.583 337.54 399.68 336.01 401.04 333.97C402.513 331.93 403.25 329.777 403.25 327.51C403.25 323.997 402.06 321.333 399.68 319.52C397.3 317.707 394.24 316.8 390.5 316.8C386.42 316.8 383.133 317.82 380.64 319.86C378.146 322.013 376.9 324.847 376.9 328.36C376.9 331.533 377.863 334.14 379.79 336.18C381.716 338.22 384.096 339.693 386.93 340.6C389.876 341.507 392.71 341.96 395.43 341.96C398.716 341.96 401.606 341.563 404.1 340.77C406.593 340.09 408.633 339.07 410.22 337.71C411.693 336.463 412.996 334.82 414.13 332.78C415.376 330.853 416.566 328.473 417.7 325.64L424.16 307.45L448.13 240.13C449.943 235.143 451.813 231.63 453.74 229.59C455.666 227.437 457.706 226.077 459.86 225.51ZM497.742 298.78C495.928 299.8 493.888 300.31 491.622 300.31C488.448 300.31 485.898 299.233 483.972 297.08C482.045 294.927 481.082 291.64 481.082 287.22C481.082 283.707 481.648 280.703 482.782 278.21C483.915 275.717 485.388 273.62 487.202 271.92C489.128 270.22 491.112 268.69 493.152 267.33C495.192 265.857 497.118 264.44 498.932 263.08C500.745 261.72 502.162 260.19 503.182 258.49V293.34C501.482 295.833 499.668 297.647 497.742 298.78Z" fill="url(#paint0_linear_707_21)"/>
<path fill-rule="evenodd" clip-rule="evenodd" d="M810 0H540V540H810V0ZM611.4 228.57C605.733 222.677 597.913 219.73 587.94 219.73C579.893 219.73 572.697 221.487 566.35 225C560.117 228.4 555.187 233.613 551.56 240.64C548.047 247.667 546.29 256.45 546.29 266.99C546.29 277.303 547.933 285.803 551.22 292.49C554.62 299.177 559.267 304.163 565.16 307.45C571.053 310.737 577.853 312.38 585.56 312.38C591.907 312.38 597.347 311.077 601.88 308.47C606.413 305.863 610.153 302.52 613.1 298.44C616.047 294.36 618.2 290.167 619.56 285.86L616.5 284.84C614.233 288.467 611.797 291.3 609.19 293.34C606.583 295.267 603.977 296.627 601.37 297.42C598.877 298.1 596.44 298.44 594.06 298.44C590.547 298.44 587.09 297.363 583.69 295.21C580.29 292.943 577.457 289.373 575.19 284.5C573.037 279.627 571.96 273.28 571.96 265.46V260.87C572.05 259.701 572.14 258.568 572.23 257.47H619.9C619.9 244.097 617.067 234.463 611.4 228.57ZM571.863 254.24H598.48C598.593 248.687 598.253 243.587 597.46 238.94C596.667 234.18 595.42 230.383 593.72 227.55C592.02 224.717 589.753 223.3 586.92 223.3C582.953 223.3 579.553 225.793 576.72 230.78C574.108 235.569 572.489 243.389 571.863 254.24ZM657.454 261.63V176.89C653.941 177.683 650.087 178.307 645.894 178.76C641.701 179.1 637.281 179.27 632.634 179.27C629.234 179.27 625.721 179.1 622.094 178.76V182.33C626.287 182.33 629.121 183.577 630.594 186.07C632.181 188.45 632.974 192.19 632.974 197.29V294.19C632.974 298.95 632.124 302.18 630.424 303.88C628.837 305.58 626.061 306.43 622.094 306.43V310C624.361 309.887 627.704 309.773 632.124 309.66C636.657 309.433 641.134 309.32 645.554 309.32C649.861 309.32 654.054 309.433 658.134 309.66C662.327 309.773 665.501 309.887 667.654 310V306.43C663.914 306.43 661.251 305.58 659.664 303.88C658.191 302.18 657.454 298.95 657.454 294.19V265.012C659.21 265.176 660.626 265.552 661.704 266.14C663.064 266.707 664.424 268.067 665.784 270.22L682.614 300.65C683.634 302.35 683.747 303.767 682.954 304.9C682.161 305.92 680.631 306.43 678.364 306.43V310C680.404 309.887 683.521 309.773 687.714 309.66C691.907 309.433 696.101 309.32 700.294 309.32C703.694 309.32 707.094 309.433 710.494 309.66C713.894 309.773 716.444 309.887 718.144 310V306.43C716.217 305.75 714.574 304.617 713.214 303.03C711.854 301.443 710.551 299.63 709.304 297.59L680.774 249.873L691.624 238.6C695.251 235.087 698.821 232.197 702.334 229.93C705.847 227.663 709.361 226.19 712.874 225.51V222.11C711.514 222.223 709.701 222.337 707.434 222.45C705.167 222.45 702.731 222.507 700.124 222.62H692.984C690.377 222.62 687.204 222.563 683.464 222.45C679.724 222.337 676.267 222.223 673.094 222.11V225.51C677.061 225.623 680.234 226.53 682.614 228.23C685.107 229.93 686.354 232.197 686.354 235.03C686.354 237.863 684.427 241.093 680.574 244.72L667.654 257.3C666.181 258.887 664.537 259.963 662.724 260.53C661.23 261.028 659.473 261.395 657.454 261.63Z" fill="url(#paint1_linear_707_21)"/>
</g>
<defs>
<linearGradient id="paint0_linear_707_21" x1="540" y1="270" x2="-3.09795e-06" y2="270" gradientUnits="userSpaceOnUse">
<stop stop-color="#10B981"/>
<stop offset="1" stop-color="#3B82F6"/>
</linearGradient>
<linearGradient id="paint1_linear_707_21" x1="540" y1="270" x2="810" y2="270" gradientUnits="userSpaceOnUse">
<stop stop-color="#10B981"/>
<stop offset="1" stop-color="#3B82F6"/>
</linearGradient>
<clipPath id="clip0_707_21">
<rect width="810" height="540" fill="white"/>
</clipPath>
</defs>
</svg>
