<svg width="810" height="540" viewBox="0 0 810 540" fill="none" xmlns="http://www.w3.org/2000/svg">
<g clip-path="url(#clip0_707_21)">
<path fill-rule="evenodd" clip-rule="evenodd" d="M537.383 307.744C539.108 295.41 540 282.809 540 270C540 120.883 419.117 0 270 0C120.883 0 0 120.883 0 270C0 419.117 120.883 540 270 540C405.283 540 517.328 440.505 536.953 310.698C536.605 310.802 536.246 310.903 535.875 311C533.25 311.688 530.375 312.031 527.25 312.031C524.125 312.031 521.25 311.5 518.625 310.438C516.062 309.375 513.938 307.812 512.25 305.75C510.563 303.688 509.469 301.125 508.969 298.062C507.844 300.938 505.938 303.469 503.25 305.656C500.563 307.781 497.313 309.469 493.5 310.719C489.688 311.906 485.469 312.5 480.844 312.5C473.531 312.5 467.469 310.562 462.656 306.688C457.844 302.812 455.438 297.531 455.438 290.844C455.438 286.406 456.625 282.5 459 279.125C461.375 275.75 465.219 272.812 470.531 270.312C475.906 267.75 482.969 265.562 491.719 263.75L508.875 260.09V248.656C508.875 239.531 506.75 233 502.5 229.062C498.313 225.125 492.563 223.156 485.25 223.156C480.813 223.156 476.688 223.906 472.875 225.406C469.063 226.906 465.969 228.969 463.594 231.594C463.368 231.837 463.153 232.084 462.947 232.334C464.703 230.903 466.575 230.188 468.563 230.188C471.313 230.188 473.656 231.125 475.594 233C477.594 234.875 478.594 237.312 478.594 240.312C478.594 243.062 477.594 245.406 475.594 247.344C473.656 249.281 471.281 250.25 468.469 250.25C465.781 250.25 463.438 249.312 461.438 247.438C459.5 245.5 458.531 243.094 458.531 240.219C458.531 236.531 459.969 233.188 462.844 230.188C465.719 227.125 469.75 224.688 474.938 222.875C480.188 221 486.313 220.062 493.313 220.062C504 220.062 512.625 222.281 519.188 226.719C525.812 231.156 529.125 238.219 529.125 247.906V296C529.125 300.125 530 303.125 531.75 305C533.227 306.582 535.104 307.497 537.383 307.744ZM508.875 261.55V297.031C507.125 300.031 504.938 302.219 502.313 303.594C499.688 304.906 496.531 305.562 492.844 305.562C488.281 305.562 484.375 304 481.125 300.875C477.938 297.75 476.344 293.25 476.344 287.375C476.344 283.375 477.063 279.844 478.5 276.781C480 273.656 482.594 270.969 486.281 268.719C489.969 266.469 495.094 264.625 501.656 263.188L508.875 261.55ZM39.525 262.906C35.2125 258.656 33.0563 253.25 33.0563 246.688C33.0563 240.875 34.5875 236 37.65 232.062C40.775 228.062 44.9625 225.062 50.2125 223.062C55.4625 221.062 61.3375 220.062 67.8375 220.062C73.9625 220.062 79.2125 220.594 83.5875 221.656C88.025 222.656 91.1813 223.812 93.0563 225.125L93.3375 248.281H92.2125C90.65 239.719 87.6813 233.156 83.3063 228.594C78.9313 224.031 73.775 221.75 67.8375 221.75C61.9625 221.75 57.4938 223.219 54.4313 226.156C51.3688 229.094 49.8375 232.781 49.8375 237.219C49.8375 241.531 51.3063 244.938 54.2438 247.438C57.2438 249.938 61.5563 252.219 67.1813 254.281L74.025 256.719C81.8375 259.469 87.8375 263.188 92.025 267.875C96.2125 272.562 98.3063 278.469 98.3063 285.594C98.3063 291.406 96.5563 296.312 93.0563 300.312C89.6188 304.312 85.2125 307.344 79.8375 309.406C74.525 311.406 68.9938 312.406 63.2438 312.406C59.1188 312.406 55.15 312.125 51.3375 311.562C47.525 311.062 44.0875 310.312 41.025 309.312C37.9625 308.312 35.4938 307.156 33.6188 305.844L32.4938 280.062H33.525C34.9 286.562 37.15 292.094 40.275 296.656C43.4625 301.219 47.0875 304.719 51.15 307.156C55.2125 309.531 59.2125 310.719 63.15 310.719C68.775 310.719 73.2438 309.188 76.5563 306.125C79.9313 303 81.6188 299.188 81.6188 294.688C81.6188 290.062 80.2438 286.312 77.4938 283.438C74.7438 280.562 70.525 278.094 64.8375 276.031L57.9 273.594C49.9625 270.719 43.8375 267.156 39.525 262.906ZM97.9388 175.625L128.689 172.156V237.594C131.189 232.281 135.064 228.031 140.314 224.844C145.564 221.656 151.626 220.062 158.501 220.062C167.251 220.062 174.439 222.25 180.064 226.625C185.751 231 188.595 238.031 188.595 247.719V299.375C188.595 302.875 189.158 305.281 190.283 306.594C191.408 307.906 194.126 309 198.439 309.875V311H158.408V309.875C162.533 309.125 165.095 308.125 166.095 306.875C167.158 305.625 167.689 303.344 167.689 300.031V250.25C167.689 242.625 166.001 237 162.626 233.375C159.314 229.688 154.501 227.844 148.189 227.844C143.814 227.844 139.939 228.812 136.564 230.75C133.251 232.625 130.626 235.281 128.689 238.719V300.031C128.689 303.344 129.189 305.625 130.189 306.875C131.251 308.125 133.845 309.125 137.97 309.875V311H97.9388V309.875C102.064 309.062 104.751 308 106.001 306.688C107.251 305.312 107.876 302.875 107.876 299.375V186.312C107.876 183.688 107.564 181.938 106.939 181.062C106.314 180.125 104.751 179.188 102.251 178.25L97.9388 176.656V175.625ZM191.79 224L222.54 220.531V282.219C222.54 289.844 224.196 295.5 227.509 299.188C230.821 302.875 235.603 304.719 241.853 304.719C246.165 304.719 249.946 303.75 253.196 301.812C256.446 299.875 259.04 297.219 260.978 293.844V234.688C260.978 232.062 260.665 230.312 260.04 229.438C259.478 228.5 257.915 227.531 255.353 226.531L251.134 225.031V224L281.79 220.531V297.688C281.79 300.312 282.103 302.094 282.728 303.031C283.353 303.906 284.915 304.844 287.415 305.844L291.728 307.344V308.375L261.071 311.75V294.875C258.571 300.188 254.696 304.469 249.446 307.719C244.196 310.906 238.134 312.5 231.259 312.5C222.696 312.5 215.603 310.312 209.978 305.938C204.415 301.5 201.634 294.438 201.634 284.75V234.688C201.634 232.062 201.321 230.312 200.696 229.438C200.134 228.5 198.603 227.531 196.103 226.531L191.79 225.031V224ZM286.954 224L317.61 220.531V237.688C320.173 232.375 324.079 228.125 329.329 224.938C334.579 221.688 340.641 220.062 347.516 220.062C356.266 220.062 363.454 222.25 369.079 226.625C374.766 231 377.61 238.031 377.61 247.719V299.375C377.61 302.875 378.173 305.281 379.298 306.594C380.423 307.906 383.141 309 387.454 309.875V311H347.423V309.875C351.548 309.125 354.11 308.125 355.11 306.875C356.173 305.625 356.704 303.344 356.704 300.031V250.25C356.704 242.625 355.016 237 351.641 233.375C348.329 229.688 343.516 227.844 337.204 227.844C332.829 227.844 328.954 228.812 325.579 230.75C322.266 232.625 319.641 235.281 317.704 238.719V300.031C317.704 303.344 318.204 305.625 319.204 306.875C320.266 308.125 322.86 309.125 326.985 309.875V311H286.954V309.875C291.079 309.062 293.766 308 295.016 306.688C296.266 305.312 296.891 302.875 296.891 299.375V234.688C296.891 232.062 296.579 230.312 295.954 229.438C295.329 228.5 293.766 227.531 291.266 226.531L286.954 225.031V224ZM418.493 312.688L387.274 237.312C385.774 233.688 384.399 230.906 383.149 228.969C381.899 227.031 380.524 225.625 379.024 224.75C377.586 223.875 375.711 223.188 373.399 222.688V221.562H417.93V222.688C412.805 223.562 409.805 225.156 408.93 227.469C408.055 229.719 408.805 234.156 411.18 240.781L428.516 287.901L444.555 241.719C446.18 237.031 447.055 233.438 447.18 230.938C447.305 228.375 446.618 226.531 445.118 225.406C443.618 224.219 441.211 223.312 437.899 222.688V221.562H464.336V222.688C462.024 223.188 460.055 224.031 458.43 225.219C456.805 226.344 455.243 228.219 453.743 230.844C452.243 233.469 450.493 237.281 448.493 242.281L429.836 288.875L420.18 312.688L406.024 354.125H390.555V353.938C393.68 351 396.993 347.188 400.493 342.5C403.993 337.875 407.336 332.906 410.524 327.594C413.711 322.344 416.368 317.375 418.493 312.688Z" fill="url(#paint0_linear_707_21)"/>
<path fill-rule="evenodd" clip-rule="evenodd" d="M810 0H540V540H810V0ZM551.625 290.188C547.812 283.125 545.906 275.031 545.906 265.906C545.906 257.219 547.625 249.406 551.062 242.469C554.5 235.531 559.406 230.062 565.781 226.062C572.156 222.062 579.75 220.062 588.562 220.062C596.188 220.062 602.719 221.656 608.156 224.844C613.656 227.969 617.875 232.25 620.812 237.688C623.75 243.062 625.219 249.188 625.219 256.062C625.219 257.688 625.094 259.156 624.844 260.469H567.139C567.404 268.568 568.826 275.787 571.406 282.125C574.281 289.188 578.281 294.719 583.406 298.719C588.594 302.719 594.562 304.719 601.312 304.719C606.75 304.719 611.281 303.844 614.906 302.094C618.594 300.344 621.594 298.125 623.906 295.438L624 296.656C621.25 301.406 616.938 305.25 611.062 308.188C605.188 311.062 598.344 312.5 590.531 312.5C581.906 312.5 574.219 310.531 567.469 306.594C560.781 302.656 555.5 297.188 551.625 290.188ZM567.105 259.067L605.433 258.425C605.514 257.596 605.578 256.715 605.625 255.781C605.75 254.469 605.812 253.062 605.812 251.562C605.812 246.188 605.219 241.25 604.031 236.75C602.844 232.188 600.969 228.562 598.406 225.875C595.906 223.125 592.625 221.75 588.562 221.75C581.562 221.75 576.219 224.969 572.531 231.406C568.906 237.781 567.094 246.531 567.094 257.656C567.094 258.129 567.098 258.599 567.105 259.067ZM624.007 175.625L654.757 172.156V262.227L663.873 261.628L686.07 236.375C689.57 232.438 691.101 229.438 690.664 227.375C690.289 225.25 687.726 223.688 682.976 222.688V221.562H713.726V222.688C710.601 223.562 707.82 224.562 705.383 225.688C702.945 226.75 700.445 228.25 697.883 230.188C695.32 232.062 692.226 234.656 688.601 237.969L677.475 248.466L703.133 292.344C705.633 296.594 707.789 299.938 709.601 302.375C711.414 304.75 713.133 306.5 714.758 307.625C716.383 308.688 718.07 309.438 719.82 309.875V311H691.414L663.746 264.128L654.757 263.734V300.031C654.757 303.344 655.257 305.625 656.257 306.875C657.32 308.125 659.914 309.125 664.039 309.875V311H624.007V309.875C628.132 309.062 630.82 308 632.07 306.688C633.32 305.312 633.945 302.875 633.945 299.375V186.312C633.945 183.688 633.632 181.938 633.007 181.062C632.382 180.125 630.82 179.188 628.32 178.25L624.007 176.656V175.625Z" fill="url(#paint1_linear_707_21)"/>
</g>
<defs>
<linearGradient id="paint0_linear_707_21" x1="540" y1="270" x2="-3.09795e-06" y2="270" gradientUnits="userSpaceOnUse">
<stop stop-color="#10B981"/>
<stop offset="1" stop-color="#3B82F6"/>
</linearGradient>
<linearGradient id="paint1_linear_707_21" x1="540" y1="270" x2="810" y2="270" gradientUnits="userSpaceOnUse">
<stop stop-color="#10B981"/>
<stop offset="1" stop-color="#3B82F6"/>
</linearGradient>
<clipPath id="clip0_707_21">
<rect width="810" height="540" fill="white"/>
</clipPath>
</defs>
</svg>
